# xmcd
#
# Track frame offsets:
#	150
#	12701
#	28051
#	46170
#	59985
#	75127
#	89261
#	105141
#	120920
#	133818
#	144890
#	152819
#	169315
#	185644
#	203328
#	218315
#	227370
#
# Disc length: 3217 seconds
#
# Revision: 0
# Processed by: cddbd v1.5.2PL0 Copyright (c) Steve Scherf et al.
# Submitted via: EasyCDDAExtractor 16.0.6.1
#
DISCID=d00c8f11
DTITLE=Συλλογικός δίσκος - Το τραμ το τελευταίο 1
DYEAR=1900
DGENRE=Ελαφρά
TTITLE0=Χορωδία - Το γελεκάκι
TTITLE1=Γούναρης Νίκος - Ένα βράδυ πού 'βρεχε-Γυναίκα σκάρτη-Πλαφ και πλουφ
TTITLE2=Σαπουντζάκη Ζωζώ - Η ταμπακέρα
TTITLE3=Καλουτά Άννα-Καλουτά Μαρία - Βρε πώς μπατιρήσαμε
TTITLE4=Μανιατάκης Κώστας - Ένας φίλος ήρθε απόψε απ' τα παλλιά
TTITLE5=Μελάγια Μάγια - Κοίτα ρε τι έπαθα
TTITLE6=Κορώνης-Φίλανδρος - Στης Πλάκας ανηφοριές-Παίξε πλακιώτικη κιθάρα-Ακρό
TTITLE6=πολη Πλάκα
TTITLE7=Βέμπο Σοφία - Να η Αθήνα
TTITLE8=Γούναρης Νίκος - Άγιε μου Γιώργη Λυκαβητέ μου
TTITLE9=Σαπουντζάκη Ζωζώ - Αδύνατο να κοιμηθώ
TTITLE10=Πάολα - Δυό πράσινα μάτια
TTITLE11=Βέμπο Σοφία - Ψαροπούλα
TTITLE12=Γούναρης Νίκος - Όταν γελάς-Ο κόσμος άλλαξε-Γλυκά μου μάτια
TTITLE13=Κορώνης-Φίλανδρος - Το τραμ τελευταίο-Παλιοζωή-Ο τραμπαρίφας-Παλιοπαρ
TTITLE13=έα
TTITLE14=Τρίο Athenee - Κάθε λιμάνι και καϋμός
TTITLE15=Πολυμέρης Φώτης - Θάλασσα πλατειά
TTITLE16=Κορώνης-Φίλανδρος - Λίγα λουλούδια-Είμαι ερωτευμένος-Ριρί Ριρίκα-Εσύ 
TTITLE16=τα φταις
EXTD=
EXTT0=
EXTT1=
EXTT2=
EXTT3=
EXTT4=
EXTT5=
EXTT6=
EXTT7=
EXTT8=
EXTT9=
EXTT10=
EXTT11=
EXTT12=
EXTT13=
EXTT14=
EXTT15=
EXTT16=
PLAYORDER=
